<svg width="71" height="41" viewBox="0 0 71 41" fill="none" xmlns="http://www.w3.org/2000/svg">
<g clip-path="url(#clip0_328_1265)">
<path d="M31.1877 6.5708C29.0514 6.5708 27.3149 8.31695 27.3149 10.4652C27.3149 12.6134 29.0628 14.3595 31.1877 14.3595C33.3125 14.3595 35.0604 12.6134 35.0604 10.4652C35.0604 8.31695 33.324 6.5708 31.1877 6.5708ZM31.1877 13.1418C29.7254 13.1418 28.5259 11.9356 28.5259 10.4652C28.5259 8.99473 29.7254 7.78851 31.1877 7.78851C32.6499 7.78851 33.8495 8.99473 33.8495 10.4652C33.8495 11.9356 32.6614 13.1418 31.1877 13.1418Z" fill="#525252"/>
<path d="M60.5928 0C54.858 0 50.1855 4.69851 50.1855 10.4654C50.1855 14.9342 56.4459 23.1479 60.1358 27.295C60.2501 27.4214 60.41 27.5018 60.5814 27.5018C60.7527 27.5018 60.9126 27.4214 61.0383 27.295C64.7283 23.1479 70.9886 14.9342 70.9886 10.4654C71 4.69851 66.3276 0 60.5928 0ZM61.381 25.0434L60.5928 25.9854L59.8045 25.0434C58.3994 23.3662 51.3965 14.7963 51.3965 10.4539C51.3965 5.35332 55.5205 1.20622 60.5928 1.20622C65.665 1.20622 69.7891 5.35332 69.7891 10.4539C69.7891 14.7963 62.7862 23.3777 61.381 25.0434Z" fill="#525252"/>
<path d="M60.5929 6.5708C58.4567 6.5708 56.7202 8.31695 56.7202 10.4652C56.7202 12.6134 58.4567 14.3595 60.5929 14.3595C62.7292 14.3595 64.4657 12.6134 64.4657 10.4652C64.4657 8.31695 62.7292 6.5708 60.5929 6.5708ZM60.5929 13.1418C59.1307 13.1418 57.9312 11.9356 57.9312 10.4652C57.9312 8.99473 59.1307 7.78851 60.5929 7.78851C62.0552 7.78851 63.2547 8.99473 63.2547 10.4652C63.2547 11.9356 62.0552 13.1418 60.5929 13.1418Z" fill="#525252"/>
<path d="M28.2971 22.4012C25.7381 19.0468 22.0024 13.6245 22.0024 10.4539C22.0024 5.35332 26.1265 1.20622 31.1987 1.20622C36.271 1.20622 40.395 5.35332 40.395 10.4539C40.395 14.7963 33.3921 23.3662 31.987 25.0434L31.6214 25.48L32.3526 26.4909C36.0882 22.16 41.606 14.6584 41.606 10.4539C41.5946 4.69851 36.9336 0 31.1873 0C25.4411 0 20.7915 4.69851 20.7915 10.4654C20.7915 13.5211 23.7046 18.3116 26.732 22.3668L28.2971 22.4012Z" fill="#525252"/>
<path d="M60.5928 32.8438C58.9706 32.8438 57.5083 33.8891 56.9599 35.44L56.72 36.1293H37.6763V37.347H56.72L56.9599 38.0362C57.5083 39.5871 58.9706 40.6325 60.5928 40.6325C62.729 40.6325 64.4655 38.8863 64.4655 36.7381C64.4655 34.5899 62.729 32.8438 60.5928 32.8438ZM60.5928 39.4148C59.1305 39.4148 57.931 38.2086 57.931 36.7381C57.931 35.2677 59.1305 34.0615 60.5928 34.0615C62.055 34.0615 63.2545 35.2677 63.2545 36.7381C63.2545 38.2086 62.055 39.4148 60.5928 39.4148Z" fill="#525252"/>
<path d="M31.096 32.6138C32.7868 32.6138 34.3062 33.6362 34.9459 35.1985C35.5856 36.7609 35.2315 38.5645 34.0434 39.7707C32.8553 40.9654 31.0617 41.3215 29.4967 40.6782C27.943 40.0349 26.9263 38.507 26.9263 36.8068C26.9263 34.4978 28.7884 32.6138 31.096 32.6138ZM31.096 38.7368C31.8729 38.7368 32.5697 38.2658 32.8782 37.542C33.1752 36.8183 33.0152 35.9912 32.4669 35.4398C31.9185 34.8884 31.0846 34.716 30.3763 35.0262C29.6566 35.3249 29.1882 36.0257 29.1882 36.8183C29.1654 37.8752 30.0336 38.7368 31.096 38.7368Z" fill="white"/>
<path d="M8.00862 32.6138C9.69937 32.6138 11.2188 33.6362 11.8585 35.1985C12.4982 36.7609 12.1441 38.5645 10.956 39.7707C9.76791 40.9654 7.97435 41.3215 6.40926 40.6782C4.8556 40.0349 3.83887 38.507 3.83887 36.8068C3.85029 34.4978 5.7124 32.6138 8.00862 32.6138ZM8.00862 38.7368C8.78545 38.7368 9.48231 38.2658 9.79076 37.542C10.0878 36.8183 9.92785 35.9912 9.3795 35.4398C8.83115 34.8884 7.9972 34.716 7.28891 35.0262C6.5692 35.3249 6.10082 36.0257 6.10082 36.8183C6.08939 37.8752 6.94619 38.7368 8.00862 38.7368Z" fill="white"/>
<path d="M2.45625 29.1558L9.93895 27.7773L16.3135 22.4584C16.9418 21.9415 17.7415 21.6543 18.5526 21.6543H27.9431C29.017 21.6543 30.0337 22.1368 30.6963 22.9869L34.7632 27.7773H37.505C39.0929 27.7773 40.3838 29.0754 40.3953 30.6837V34.2334C40.3953 36.1864 38.8188 37.7717 36.8653 37.7832H36.1341C36.4197 36.2783 36.0199 34.7159 35.0488 33.5212C34.0778 32.338 32.627 31.6487 31.0962 31.6487C29.5653 31.6487 28.1145 32.338 27.1435 33.5212C26.1724 34.7044 25.7726 36.2668 26.0582 37.7832H13.0463C13.3319 36.2783 12.932 34.7159 11.961 33.5212C10.99 32.338 9.53911 31.6487 8.0083 31.6487C6.47749 31.6487 5.02664 32.338 4.0556 33.5212C3.08457 34.7044 2.68473 36.2668 2.97033 37.7832H2.87893C1.291 37.7717 9.22374e-05 36.4736 9.22374e-05 34.8768V32.0278C-0.0113317 30.5803 1.03967 29.3626 2.45625 29.1558ZM26.2867 26.8123C26.2867 27.3408 26.7208 27.7773 27.2463 27.7773H31.4731C31.8844 27.7773 32.1015 27.2948 31.8387 26.9846L29.0398 23.6876C28.8571 23.4694 28.5943 23.3545 28.3087 23.3545H27.2463C26.7208 23.3545 26.2867 23.791 26.2867 24.3195V26.8123ZM21.4772 31.327H22.7567C23.2822 31.327 23.7163 30.8905 23.7163 30.3621C23.7163 29.8336 23.2822 29.3971 22.7567 29.3971H21.4772C20.9517 29.3971 20.5176 29.8336 20.5176 30.3621C20.5176 30.8905 20.9402 31.327 21.4772 31.327ZM13.9031 27.8003L23.0765 27.7773C23.602 27.7773 24.0361 27.3408 24.0361 26.8123V24.308C24.0361 23.7795 23.602 23.343 23.0765 23.343H18.4612C18.2442 23.343 18.0385 23.4119 17.8672 23.5498L13.606 26.9387C13.2519 27.2259 13.4461 27.8003 13.9031 27.8003Z" fill="white"/>
</g>
<defs>
<clipPath id="clip0_328_1265">
<rect width="71" height="41" fill="white"/>
</clipPath>
</defs>
</svg>
