<svg width="71" height="41" viewBox="0 0 71 41" fill="none" xmlns="http://www.w3.org/2000/svg">
<g clip-path="url(#clip0_328_1279)">
<path d="M30.9415 0C25.158 0 20.4668 4.74102 20.4668 10.5601C20.4668 15.0693 26.7677 23.3574 30.4815 27.542C30.5965 27.6695 30.7575 27.7506 30.93 27.7506C31.1024 27.7506 31.2634 27.6695 31.3899 27.542C35.1037 23.3574 41.4046 15.0693 41.4046 10.5601C41.4046 4.74102 36.7134 0 30.9415 0ZM31.7233 25.27L30.93 26.2205L30.1366 25.27C28.7223 23.5776 21.6741 14.9302 21.6741 10.5485C21.6741 5.40175 25.8249 1.21713 30.93 1.21713C36.0351 1.21713 40.1858 5.40175 40.1858 10.5485C40.1858 14.9302 33.1376 23.5892 31.7233 25.27Z" fill="#525252"/>
<path d="M30.9413 6.63037C28.7911 6.63037 27.0435 8.39232 27.0435 10.56C27.0435 12.7276 28.7911 14.4896 30.9413 14.4896C33.0914 14.4896 34.8391 12.7276 34.8391 10.56C34.8391 8.39232 33.0799 6.63037 30.9413 6.63037ZM30.9413 13.2608C29.4695 13.2608 28.2622 12.0437 28.2622 10.56C28.2622 9.07623 29.4695 7.8591 30.9413 7.8591C32.413 7.8591 33.6203 9.07623 33.6203 10.56C33.6203 12.0437 32.413 13.2608 30.9413 13.2608Z" fill="#525252"/>
<path d="M60.5259 0C54.7539 0 50.0513 4.74102 50.0513 10.5601C50.0513 15.0693 56.3522 23.3574 60.066 27.542C60.181 27.6695 60.342 27.7506 60.5144 27.7506C60.6869 27.7506 60.8479 27.6695 60.9743 27.542C64.6882 23.3574 70.9891 15.0693 70.9891 10.5601C71.0006 4.74102 66.2979 0 60.5259 0ZM61.3193 25.27L60.5259 26.2205L59.7326 25.27C58.3183 23.5776 51.2701 14.9302 51.2701 10.5485C51.2701 5.40175 55.4208 1.21713 60.5259 1.21713C65.631 1.21713 69.7818 5.40175 69.7818 10.5485C69.7818 14.9302 62.7335 23.5892 61.3193 25.27Z" fill="#525252"/>
<path d="M60.5257 6.63037C58.3756 6.63037 56.6279 8.39232 56.6279 10.56C56.6279 12.7276 58.3756 14.4896 60.5257 14.4896C62.6759 14.4896 64.4235 12.7276 64.4235 10.56C64.4235 8.39232 62.6759 6.63037 60.5257 6.63037ZM60.5257 13.2608C59.054 13.2608 57.8467 12.0437 57.8467 10.56C57.8467 9.07623 59.054 7.8591 60.5257 7.8591C61.9975 7.8591 63.2048 9.07623 63.2048 10.56C63.2048 12.0437 62.009 13.2608 60.5257 13.2608Z" fill="#525252"/>
<path d="M60.5256 33.1406C58.8929 33.1406 57.4211 34.1955 56.8692 35.7604L56.6277 36.4559H34.8391L34.5976 35.7604C34.0457 34.1955 32.574 33.1406 30.9413 33.1406C28.7912 33.1406 27.0435 34.9026 27.0435 37.0702C27.0435 39.2379 28.7912 40.9998 30.9413 40.9998C32.574 40.9998 34.0457 39.945 34.5976 38.3801L34.8391 37.6846H56.6277L56.8692 38.3801C57.4211 39.945 58.8929 40.9998 60.5256 40.9998C62.6757 40.9998 64.4234 39.2379 64.4234 37.0702C64.4234 34.9026 62.6757 33.1406 60.5256 33.1406ZM30.9413 39.7711C29.4695 39.7711 28.2622 38.554 28.2622 37.0702C28.2622 35.5865 29.4695 34.3694 30.9413 34.3694C32.413 34.3694 33.6203 35.5865 33.6203 37.0702C33.6203 38.554 32.413 39.7711 30.9413 39.7711ZM60.5256 39.7711C59.0538 39.7711 57.8465 38.554 57.8465 37.0702C57.8465 35.5865 59.0538 34.3694 60.5256 34.3694C61.9973 34.3694 63.2046 35.5865 63.2046 37.0702C63.2046 38.554 62.0088 39.7711 60.5256 39.7711Z" fill="#525252"/>
<path d="M39.7485 28.2489C41.7425 28.2489 43.3589 26.6193 43.3589 24.6091C43.3589 22.5988 41.7425 20.9692 39.7485 20.9692C37.7546 20.9692 36.1382 22.5988 36.1382 24.6091C36.1382 26.6193 37.7546 28.2489 39.7485 28.2489Z" fill="white"/>
<path d="M0.90834 33.7199C1.40275 33.7199 1.81668 33.3142 1.81668 32.8042C1.81668 31.4364 7.04826 24.6088 14.4645 24.6088C14.9589 24.6088 15.3728 24.2031 15.3728 23.6931C15.3728 23.1946 14.9704 22.7773 14.4645 22.7773C6.41587 22.7889 0 29.9874 0 32.8042C0 33.3142 0.402429 33.7199 0.90834 33.7199Z" fill="white"/>
<path d="M0.90834 31.9005H9.06041C10.2677 31.9005 11.314 31.1122 11.6589 29.9531L13.6481 23.2994L15.4533 19.6596C15.6028 19.3466 15.9132 19.1611 16.2581 19.1611H18.9717C19.2131 19.1611 19.4431 19.2539 19.6155 19.4277L22.9615 22.8009H37.0465C37.5409 22.8009 37.9548 23.2067 37.9548 23.7167V25.5366C37.9548 25.9771 37.6329 26.3596 37.196 26.4292C33.8845 26.9856 28.2505 28.3534 26.9513 29.698L26.8938 29.814C25.1921 33.1872 23.0649 37.3718 18.9717 37.3718H6.32389C2.72502 37.3718 0 35.4128 0 32.8162C0 32.3062 0.402429 31.9005 0.90834 31.9005Z" fill="white"/>
<path d="M40.6571 21.9083L39.8523 21.9431L39.6338 22.3952C39.4728 22.7081 39.1509 22.8936 38.829 22.8936C38.691 22.8936 38.553 22.8588 38.4265 22.8009C37.9781 22.5806 37.7941 22.0242 38.0241 21.5837L39.8293 17.9439C40.0477 17.515 40.5536 17.3296 41.0021 17.515L42.8302 18.3149C43.2557 18.5003 43.4741 18.9872 43.3362 19.4393L42.4278 22.1749C42.2668 22.6502 41.7494 22.9052 41.2895 22.7545C40.9101 22.6154 40.6801 22.2793 40.6571 21.9083Z" fill="white"/>
<path d="M38.4378 26.5218C38.8863 26.3016 39.4267 26.4754 39.6451 26.9275L39.7601 27.1478C39.8406 26.7305 40.2085 26.4175 40.6455 26.4175C41.1399 26.4175 41.5538 26.8232 41.5538 27.3332V29.1531C41.5538 29.6516 41.1514 30.0689 40.6455 30.0689H39.7371C39.3922 30.0689 39.0817 29.8718 38.9322 29.5704L38.0239 27.7505C37.8169 27.2985 38.0009 26.7536 38.4378 26.5218Z" fill="white"/>
<path d="M17.1666 16.4137C17.6611 16.4137 18.075 16.008 18.075 15.498V14.5823C18.075 14.0838 17.6726 13.6665 17.1666 13.6665C16.6722 13.6665 16.2583 14.0722 16.2583 14.5823V15.498C16.2583 16.008 16.6607 16.4137 17.1666 16.4137Z" fill="white"/>
<path d="M0.90834 17.3178H17.1665C17.6609 17.3178 18.0748 16.9121 18.0748 16.4021C18.0748 15.9036 17.6724 15.4863 17.1665 15.4863H0.90834C0.413927 15.4863 0 15.892 0 16.4021C0 16.9121 0.402429 17.3178 0.90834 17.3178Z" fill="white"/>
<path d="M17.1666 17.3178H33.4248C33.9192 17.3178 34.3331 16.9121 34.3331 16.4021C34.3331 15.9036 33.9307 15.4863 33.4248 15.4863H17.1666C16.6722 15.4863 16.2583 15.892 16.2583 16.4021C16.2583 16.9121 16.6607 17.3178 17.1666 17.3178Z" fill="white"/>
<path d="M13.5563 40.9996C14.0507 40.9996 14.4646 40.5939 14.4646 40.0839V36.4441C14.4646 35.9456 14.0622 35.5283 13.5563 35.5283C13.0619 35.5283 12.6479 35.934 12.6479 36.4441V40.0839C12.6479 40.5939 13.0504 40.9996 13.5563 40.9996Z" fill="white"/>
<path d="M6.32387 40.9996C6.81828 40.9996 7.23221 40.5939 7.23221 40.0839V36.4441C7.23221 35.9456 6.82978 35.5283 6.32387 35.5283C5.81796 35.5283 5.41553 35.934 5.41553 36.4441V40.0839C5.41553 40.5939 5.82945 40.9996 6.32387 40.9996Z" fill="white"/>
<path d="M22.5821 41.0002C23.0766 41.0002 23.4905 40.5944 23.4905 40.0844C23.4905 39.586 23.0881 39.1687 22.5821 39.1687H4.51883C3.86344 39.0643 2.12725 38.5891 1.69033 37.8124C1.44887 37.3719 0.896966 37.2212 0.460043 37.4647C0.0231195 37.7081 -0.126354 38.2645 0.115103 38.705C1.09243 40.4669 4.05891 40.9306 4.39235 40.9886L22.5821 41.0002Z" fill="white"/>
</g>
<defs>
<clipPath id="clip0_328_1279">
<rect width="71" height="41" fill="white"/>
</clipPath>
</defs>
</svg>
