<svg width="223" height="22" viewBox="0 0 223 22" fill="none" xmlns="http://www.w3.org/2000/svg">
<path d="M16.5899 16.44H6.0899L4.0199 21.3H-9.76669e-05L9.4499 0.300047H13.2899L22.7699 21.3H18.6899L16.5899 16.44ZM15.2999 13.38L11.3399 4.20005L7.4099 13.38H15.2999ZM44.1906 18.03V21.3H28.4406V0.300047H43.7706V3.57005H32.3406V9.03005H42.4806V12.24H32.3406V18.03H44.1906ZM65.2783 21.3L60.9883 15.15C60.8083 15.17 60.5383 15.18 60.1783 15.18H55.4383V21.3H51.5383V0.300047H60.1783C61.9983 0.300047 63.5783 0.600048 64.9183 1.20005C66.2783 1.80005 67.3183 2.66005 68.0383 3.78005C68.7583 4.90005 69.1183 6.23005 69.1183 7.77005C69.1183 9.35005 68.7283 10.71 67.9483 11.85C67.1883 12.99 66.0883 13.84 64.6483 14.4L69.4783 21.3H65.2783ZM65.1883 7.77005C65.1883 6.43005 64.7483 5.40005 63.8683 4.68005C62.9883 3.96005 61.6983 3.60005 59.9983 3.60005H55.4383V11.97H59.9983C61.6983 11.97 62.9883 11.61 63.8683 10.89C64.7483 10.15 65.1883 9.11005 65.1883 7.77005ZM86.2916 21.6C84.1516 21.6 82.2216 21.14 80.5016 20.22C78.7816 19.28 77.4316 17.99 76.4516 16.35C75.4716 14.69 74.9816 12.84 74.9816 10.8C74.9816 8.76005 75.4716 6.92005 76.4516 5.28005C77.4316 3.62005 78.7816 2.33005 80.5016 1.41005C82.2216 0.470048 84.1516 4.76837e-05 86.2916 4.76837e-05C88.4316 4.76837e-05 90.3616 0.470048 92.0816 1.41005C93.8016 2.33005 95.1516 3.61005 96.1316 5.25005C97.1116 6.89005 97.6016 8.74005 97.6016 10.8C97.6016 12.86 97.1116 14.71 96.1316 16.35C95.1516 17.99 93.8016 19.28 92.0816 20.22C90.3616 21.14 88.4316 21.6 86.2916 21.6ZM86.2916 18.18C87.6916 18.18 88.9516 17.87 90.0716 17.25C91.1916 16.61 92.0716 15.73 92.7116 14.61C93.3516 13.47 93.6716 12.2 93.6716 10.8C93.6716 9.40005 93.3516 8.14005 92.7116 7.02005C92.0716 5.88005 91.1916 5.00005 90.0716 4.38005C88.9516 3.74005 87.6916 3.42005 86.2916 3.42005C84.8916 3.42005 83.6316 3.74005 82.5116 4.38005C81.3916 5.00005 80.5116 5.88005 79.8716 7.02005C79.2316 8.14005 78.9116 9.40005 78.9116 10.8C78.9116 12.2 79.2316 13.47 79.8716 14.61C80.5116 15.73 81.3916 16.61 82.5116 17.25C83.6316 17.87 84.8916 18.18 86.2916 18.18ZM113.826 21.42C111.226 21.42 109.196 20.66 107.736 19.14C106.296 17.62 105.576 15.39 105.576 12.45V0.300047H106.596V12.42C106.596 15.1 107.216 17.12 108.456 18.48C109.696 19.82 111.486 20.49 113.826 20.49C116.146 20.49 117.926 19.82 119.166 18.48C120.426 17.12 121.056 15.1 121.056 12.42V0.300047H122.046V12.45C122.046 15.39 121.326 17.62 119.886 19.14C118.446 20.66 116.426 21.42 113.826 21.42ZM150.815 0.300047V21.3H149.975L135.065 2.16005V21.3H134.045V0.300047H134.885L149.795 19.44V0.300047H150.815ZM163.007 0.300047H164.027V21.3H163.007V0.300047ZM184.909 21.42C182.869 21.42 181.019 20.96 179.359 20.04C177.719 19.12 176.429 17.85 175.489 16.23C174.549 14.61 174.079 12.8 174.079 10.8C174.079 8.80005 174.549 6.99005 175.489 5.37005C176.429 3.75005 177.719 2.48005 179.359 1.56005C181.019 0.640047 182.869 0.180047 184.909 0.180047C186.949 0.180047 188.799 0.640047 190.459 1.56005C192.119 2.48005 193.419 3.75005 194.359 5.37005C195.299 6.99005 195.769 8.80005 195.769 10.8C195.769 12.8 195.299 14.61 194.359 16.23C193.419 17.85 192.119 19.12 190.459 20.04C188.799 20.96 186.949 21.42 184.909 21.42ZM184.909 20.49C186.749 20.49 188.419 20.07 189.919 19.23C191.419 18.39 192.599 17.23 193.459 15.75C194.319 14.27 194.749 12.62 194.749 10.8C194.749 8.98005 194.319 7.33005 193.459 5.85005C192.599 4.37005 191.419 3.21005 189.919 2.37005C188.419 1.53005 186.749 1.11005 184.909 1.11005C183.069 1.11005 181.399 1.53005 179.899 2.37005C178.419 3.21005 177.249 4.37005 176.389 5.85005C175.529 7.33005 175.099 8.98005 175.099 10.8C175.099 12.62 175.529 14.27 176.389 15.75C177.249 17.23 178.419 18.39 179.899 19.23C181.399 20.07 183.069 20.49 184.909 20.49ZM222.586 0.300047V21.3H221.746L206.836 2.16005V21.3H205.816V0.300047H206.656L221.566 19.44V0.300047H222.586Z" fill="white"/>
</svg>
